<?xml version="1.0" encoding="utf-8"?>
<!-- Generator: Adobe Illustrator 18.1.1, SVG Export Plug-In . SVG Version: 6.00 Build 0)  -->
<svg version="1.1" id="Layer_1" xmlns="http://www.w3.org/2000/svg" xmlns:xlink="http://www.w3.org/1999/xlink" x="0px" y="0px"
	 viewBox="0 0 486.4 88" enable-background="new 0 0 486.4 88" xml:space="preserve">
<g>
	<g>
		<path fill="#FFFFFF" d="M7.4,56.2V9.8h7.8v19.4h22.2V9.8h7.9c0,0.5,0,1.9,0,4.3c0,2.3,0,5.2,0,8.4c0,3.3,0,6.8,0,10.5
			c0,3.7,0,7.2,0,10.5c0,3.3,0,6.1,0,8.4c0,2.3,0,3.8,0,4.3h-7.8V36.6H15.3v19.6H7.4z"/>
		<path fill="#FFFFFF" d="M53,33.1c0-3.2,0.6-6.3,1.9-9.2c1.3-2.9,3-5.4,5.1-7.6c2.1-2.2,4.7-3.9,7.5-5.2c2.9-1.3,5.9-1.9,9.2-1.9
			c3.2,0,6.3,0.6,9.2,1.9c2.9,1.3,5.4,3,7.6,5.2c2.2,2.2,3.9,4.7,5.1,7.6c1.3,2.9,1.9,5.9,1.9,9.2c0,3.3-0.6,6.3-1.9,9.2
			c-1.3,2.9-3,5.4-5.1,7.5c-2.2,2.1-4.7,3.8-7.6,5.1c-2.9,1.2-5.9,1.8-9.2,1.8c-3.3,0-6.3-0.6-9.2-1.8c-2.9-1.2-5.4-2.9-7.5-5.1
			c-2.1-2.1-3.8-4.7-5.1-7.5C53.6,39.4,53,36.4,53,33.1z M60.8,33.1c0,2.3,0.4,4.4,1.2,6.3c0.8,2,2,3.7,3.4,5.2
			c1.5,1.5,3.2,2.6,5.1,3.5c1.9,0.9,4,1.3,6.3,1.3c2.2,0,4.2-0.4,6.1-1.3c1.9-0.8,3.6-2,5-3.5c1.4-1.5,2.5-3.2,3.4-5.2
			c0.8-2,1.2-4.1,1.2-6.3c0-2.3-0.4-4.4-1.3-6.3c-0.9-2-2-3.7-3.4-5.2c-1.4-1.5-3.1-2.7-5.1-3.5c-1.9-0.8-4-1.3-6.2-1.3
			c-2.2,0-4.3,0.4-6.2,1.3c-1.9,0.9-3.6,2-5,3.5c-1.4,1.5-2.5,3.2-3.4,5.2C61.2,28.7,60.8,30.9,60.8,33.1z"/>
		<path fill="#FFFFFF" d="M108.1,7.7c0.2,0.3,0.7,1,1.4,2c0.7,1,1.6,2.3,2.7,3.8c1.1,1.5,2.3,3.2,3.6,5c1.3,1.8,2.7,3.7,4.1,5.6
			c1.4,1.9,2.7,3.7,4,5.5c1.3,1.8,2.5,3.5,3.6,4.9c1.1,1.5,2,2.7,2.7,3.7c0.7,1,1.2,1.6,1.4,1.9c0.1-0.1,0.5-0.7,1.1-1.6
			c0.7-1,1.5-2.2,2.6-3.6c1-1.4,2.2-3.1,3.5-4.9c1.3-1.8,2.7-3.7,4.1-5.6c1.4-1.9,2.8-3.8,4.1-5.7c1.3-1.9,2.6-3.6,3.7-5.1
			c1.1-1.5,2.1-2.8,2.8-3.9c0.8-1.1,1.3-1.7,1.5-2v48.5h-8.3V32.5c0-0.3,0-0.7,0.1-1.1c0.1-0.4,0.1-0.6,0.1-0.7l-15.4,22.1
			c-0.2-0.3-0.7-1-1.6-2.1c-0.8-1.1-1.8-2.5-3-4.1c-1.1-1.6-2.4-3.3-3.6-5.1c-1.3-1.8-2.5-3.5-3.6-5c-1.1-1.5-2.1-2.9-2.9-3.9
			c-0.8-1.1-1.2-1.7-1.3-1.9c0,0.1,0,0.3,0.1,0.7c0.1,0.4,0.1,0.7,0.1,1.1v23.7h-7.8V7.7z"/>
		<path fill="#FFFFFF" d="M165.7,56.2V9.8h30.8v7.1h-23.1v12.5H194v7.3h-20.5V49h24v7.3H165.7z"/>
	</g>
	<g>
		<path fill="#FFFFFF" d="M238.1,19.3l-1.9,4.3c-1.2-0.4-2.4-0.8-3.5-1c-1.2-0.3-2.2-0.4-3.2-0.4c-1.7,0-3.1,0.3-4.1,1
			c-1,0.7-1.5,1.5-1.5,2.6c0,0.9,0.4,1.6,1.1,2.2c0.8,0.6,1.7,1.1,2.8,1.5c1.1,0.5,2.4,0.9,3.7,1.4c1.3,0.5,2.5,1.1,3.7,1.8
			c1.1,0.7,2.1,1.7,2.8,2.8c0.8,1.1,1.1,2.6,1.1,4.3c0,1.4-0.2,2.6-0.7,3.7c-0.5,1.1-1.2,2.1-2.2,2.8c-1,0.8-2.2,1.4-3.8,1.8
			c-1.5,0.4-3.3,0.7-5.3,0.7c-1.2,0-2.4-0.1-3.4-0.3c-1-0.2-1.9-0.4-2.7-0.6c-0.8-0.3-1.5-0.5-2.1-0.8c-0.6-0.3-1.2-0.6-1.6-0.9
			l2.3-4.6c1.2,0.7,2.5,1.2,3.8,1.5c1.4,0.4,2.6,0.5,3.6,0.5c0.5,0,1.2-0.1,2-0.2c0.8-0.1,1.6-0.3,2.4-0.6c0.8-0.3,1.4-0.7,2-1.3
			c0.6-0.5,0.8-1.2,0.8-2.1c0-1-0.4-1.8-1.1-2.4c-0.8-0.6-1.7-1.2-2.8-1.7c-1.1-0.5-2.4-1-3.7-1.5c-1.3-0.5-2.5-1.1-3.7-1.7
			c-1.1-0.7-2.1-1.5-2.8-2.5c-0.8-1-1.1-2.2-1.1-3.7c0-1.1,0.2-2.1,0.6-3.2c0.4-1,1.1-2,1.9-2.8c0.9-0.8,1.9-1.5,3.2-2
			c1.3-0.5,2.8-0.8,4.6-0.8c1.1,0,2.2,0.1,3.2,0.3s2,0.4,2.8,0.6c0.8,0.2,1.5,0.4,2,0.7C237.6,19.2,238,19.3,238.1,19.3z"/>
		<path fill="#FFFFFF" d="M267.4,46.3c-0.3,0.2-0.8,0.5-1.4,0.8c-0.6,0.3-1.3,0.6-2.2,0.9c-0.8,0.3-1.8,0.5-2.8,0.7
			c-1,0.2-2.2,0.3-3.4,0.3c-2.4,0-4.6-0.4-6.5-1.3c-1.9-0.8-3.6-2-4.9-3.4c-1.3-1.4-2.4-3.1-3.1-5c-0.7-1.9-1.1-3.9-1.1-6
			c0-2.3,0.4-4.5,1.3-6.4c0.9-2,2-3.7,3.5-5.1c1.5-1.4,3.2-2.5,5.1-3.3c1.9-0.8,4-1.2,6.2-1.2c0.9,0,1.7,0.1,2.6,0.2
			c0.9,0.1,1.7,0.3,2.4,0.5c0.8,0.2,1.4,0.4,2,0.7c0.6,0.3,1,0.5,1.3,0.8c-0.3,0.4-0.5,0.7-0.6,1c-0.1,0.3-0.3,0.5-0.4,0.8
			c-0.2,0.3-0.3,0.6-0.5,0.9c-0.2,0.3-0.4,0.8-0.8,1.4c-0.3-0.2-0.8-0.4-1.2-0.6c-0.5-0.2-1-0.3-1.5-0.4c-0.5-0.1-1.1-0.2-1.6-0.2
			c-0.5-0.1-1-0.1-1.4-0.1c-1.6,0-3.1,0.3-4.4,0.9c-1.3,0.6-2.5,1.4-3.5,2.4c-1,1-1.7,2.1-2.3,3.4c-0.6,1.3-0.8,2.7-0.8,4
			c0,1.4,0.3,2.7,0.8,4c0.5,1.3,1.3,2.4,2.2,3.4c0.9,1,2.1,1.8,3.4,2.4c1.3,0.6,2.7,0.9,4.3,0.9c0.9,0,1.8-0.1,2.6-0.3
			c0.9-0.2,1.6-0.4,2.3-0.6c0.7-0.2,1.2-0.5,1.6-0.7c0.4-0.2,0.6-0.4,0.7-0.5L267.4,46.3z"/>
		<path fill="#FFFFFF" d="M271.3,48.6v-31h5.2v12.9h14.8V17.6h5.3c0,0.3,0,1.3,0,2.8c0,1.6,0,3.4,0,5.6c0,2.2,0,4.5,0,7
			c0,2.5,0,4.8,0,7c0,2.2,0,4.1,0,5.6c0,1.6,0,2.5,0,2.8h-5.2V35.5h-14.8v13.1H271.3z"/>
		<path fill="#FFFFFF" d="M301.7,33.2c0-2.2,0.4-4.2,1.3-6.1c0.8-1.9,2-3.6,3.4-5.1c1.4-1.4,3.1-2.6,5-3.4c1.9-0.9,4-1.3,6.1-1.3
			c2.2,0,4.2,0.4,6.1,1.3c1.9,0.9,3.6,2,5.1,3.4c1.4,1.4,2.6,3.1,3.4,5.1c0.8,1.9,1.3,4,1.3,6.1c0,2.2-0.4,4.2-1.3,6.1
			c-0.8,1.9-2,3.6-3.4,5c-1.4,1.4-3.1,2.6-5.1,3.4c-1.9,0.8-4,1.2-6.1,1.2c-2.2,0-4.2-0.4-6.1-1.2c-1.9-0.8-3.6-1.9-5-3.4
			c-1.4-1.4-2.6-3.1-3.4-5C302.1,37.4,301.7,35.3,301.7,33.2z M306.9,33.2c0,1.5,0.3,2.9,0.8,4.2c0.6,1.3,1.3,2.5,2.3,3.4
			c1,1,2.1,1.8,3.4,2.3c1.3,0.6,2.7,0.9,4.2,0.9c1.4,0,2.8-0.3,4.1-0.9c1.3-0.6,2.4-1.3,3.4-2.3c0.9-1,1.7-2.1,2.3-3.4
			c0.6-1.3,0.8-2.7,0.8-4.2c0-1.5-0.3-2.9-0.9-4.2c-0.6-1.3-1.3-2.5-2.3-3.5c-1-1-2.1-1.8-3.4-2.3s-2.7-0.9-4.1-0.9
			c-1.5,0-2.9,0.3-4.1,0.9s-2.4,1.3-3.4,2.3c-1,1-1.7,2.1-2.3,3.5C307.2,30.2,306.9,31.6,306.9,33.2z"/>
		<path fill="#FFFFFF" d="M336.4,33.2c0-2.2,0.4-4.2,1.3-6.1c0.8-1.9,2-3.6,3.4-5.1c1.4-1.4,3.1-2.6,5-3.4c1.9-0.9,4-1.3,6.1-1.3
			c2.2,0,4.2,0.4,6.1,1.3c1.9,0.9,3.6,2,5.1,3.4c1.4,1.4,2.6,3.1,3.4,5.1c0.8,1.9,1.3,4,1.3,6.1c0,2.2-0.4,4.2-1.3,6.1
			c-0.8,1.9-2,3.6-3.4,5c-1.4,1.4-3.1,2.6-5.1,3.4c-1.9,0.8-4,1.2-6.1,1.2c-2.2,0-4.2-0.4-6.1-1.2c-1.9-0.8-3.6-1.9-5-3.4
			c-1.4-1.4-2.6-3.1-3.4-5C336.8,37.4,336.4,35.3,336.4,33.2z M341.7,33.2c0,1.5,0.3,2.9,0.8,4.2c0.6,1.3,1.3,2.5,2.3,3.4
			c1,1,2.1,1.8,3.4,2.3c1.3,0.6,2.7,0.9,4.2,0.9c1.4,0,2.8-0.3,4.1-0.9c1.3-0.6,2.4-1.3,3.4-2.3c0.9-1,1.7-2.1,2.3-3.4
			c0.6-1.3,0.8-2.7,0.8-4.2c0-1.5-0.3-2.9-0.9-4.2c-0.6-1.3-1.3-2.5-2.3-3.5c-1-1-2.1-1.8-3.4-2.3s-2.7-0.9-4.1-0.9
			c-1.5,0-2.9,0.3-4.1,0.9s-2.4,1.3-3.4,2.3c-1,1-1.7,2.1-2.3,3.5C341.9,30.2,341.7,31.6,341.7,33.2z"/>
		<path fill="#FFFFFF" d="M373.2,48.6v-31h5.2v26.1h15.1v4.9H373.2z"/>
		<path fill="#FFFFFF" d="M397.7,17.6h5.2v31h-5.2V17.6z"/>
		<path fill="#FFFFFF" d="M437.4,17.6V50c-0.2-0.3-0.6-0.7-1.3-1.4c-0.7-0.7-1.5-1.5-2.5-2.4c-1-0.9-2.1-2-3.3-3.1
			c-1.2-1.1-2.4-2.3-3.7-3.5c-1.2-1.2-2.5-2.3-3.7-3.5c-1.2-1.1-2.3-2.2-3.3-3.1c-1-0.9-1.8-1.8-2.5-2.4c-0.7-0.7-1.1-1.1-1.3-1.4
			c0-0.1-0.1-0.2-0.3-0.4c-0.2-0.2-0.4-0.5-0.5-0.7l0.1,1.4v19.2H410V16.2c0.2,0.3,0.6,0.7,1.3,1.4c0.7,0.7,1.5,1.5,2.5,2.4
			c1,0.9,2.1,2,3.3,3.1c1.2,1.1,2.4,2.2,3.7,3.4c1.2,1.1,2.5,2.3,3.7,3.4c1.2,1.1,2.3,2.1,3.3,3.1c1,0.9,1.8,1.7,2.5,2.4
			c0.7,0.7,1.1,1.1,1.3,1.4l0.8,1.2l-0.1-1.4V17.6H437.4z"/>
		<path fill="#FFFFFF" d="M468,33.5v13.2c-1.2,0.7-2.6,1.3-4.3,1.6c-1.7,0.4-3.4,0.6-5.2,0.6c-2.4,0-4.6-0.4-6.6-1.1
			c-2-0.8-3.7-1.8-5-3.1c-1.4-1.3-2.5-2.9-3.2-4.8s-1.1-3.9-1.1-6c0-2.5,0.4-4.7,1.3-6.7c0.9-2,2.1-3.8,3.5-5.2
			c1.5-1.5,3.2-2.6,5.2-3.4c2-0.8,4-1.2,6.2-1.2c0.7,0,1.5,0,2.3,0.1c0.8,0.1,1.6,0.2,2.4,0.4c0.8,0.2,1.6,0.4,2.3,0.7
			c0.7,0.3,1.4,0.6,2,1l-2.6,4.3c-0.4-0.3-0.9-0.5-1.4-0.7c-0.6-0.2-1.1-0.3-1.7-0.5c-0.6-0.1-1.2-0.2-1.8-0.3
			c-0.6-0.1-1.1-0.1-1.6-0.1c-1.4,0-2.8,0.3-4.1,0.9c-1.3,0.6-2.5,1.4-3.5,2.4c-1,1-1.8,2.2-2.4,3.6c-0.6,1.4-0.9,2.8-0.9,4.4
			c0,1.4,0.3,2.8,0.8,4c0.5,1.3,1.3,2.4,2.3,3.4c1,1,2.1,1.8,3.4,2.3c1.3,0.6,2.8,0.9,4.4,0.9c0.6,0,1.3,0,2.1-0.1
			c0.9-0.1,1.7-0.3,2.4-0.5V38h-5.8v-4.5H468z"/>
	</g>
	<rect x="299.5" y="64.4" fill="none" width="174.9" height="23.8"/>
	<text transform="matrix(1 0 0 1 423.6512 81.3409)" fill="#FFFFFF" font-family="'JosefinSans-Bold'" font-size="21.7348">NSW</text>
	<rect x="208" y="7.8" fill="none" stroke="#FFFFFF" stroke-width="4.1354" stroke-miterlimit="10" width="269.1" height="50.7"/>
</g>
</svg>
